<svg width="1024" height="1024" viewBox="0 0 1024 1024" fill="none" xmlns="http://www.w3.org/2000/svg">
  <defs>
    <linearGradient id="bg" x1="156" y1="118" x2="884" y2="904" gradientUnits="userSpaceOnUse">
      <stop stop-color="#090B12"/>
      <stop offset="0.52" stop-color="#162033"/>
      <stop offset="1" stop-color="#1D1626"/>
    </linearGradient>
    <linearGradient id="edge" x1="182" y1="182" x2="844" y2="844" gradientUnits="userSpaceOnUse">
      <stop stop-color="#F6E0B7" stop-opacity="0.54"/>
      <stop offset="0.45" stop-color="#6D7483" stop-opacity="0.18"/>
      <stop offset="1" stop-color="#F6E0B7" stop-opacity="0.24"/>
    </linearGradient>
    <radialGradient id="halo" cx="0" cy="0" r="1" gradientUnits="userSpaceOnUse" gradientTransform="translate(514 410) rotate(90) scale(336)">
      <stop stop-color="#D2C1A6" stop-opacity="0.24"/>
      <stop offset="1" stop-color="#D2C1A6" stop-opacity="0"/>
    </radialGradient>
  </defs>
  <rect width="1024" height="1024" rx="224" fill="url(#bg)"/>
  <rect x="28" y="28" width="968" height="968" rx="196" stroke="url(#edge)" stroke-width="4"/>
  <circle cx="514" cy="410" r="336" fill="url(#halo)"/>
  <path d="M258 224C258 207.431 271.431 194 288 194H378C394.569 194 408 207.431 408 224V800C408 816.569 394.569 830 378 830H288C271.431 830 258 816.569 258 800V224Z" fill="#F3EEE6"/>
  <path d="M632 224C632 207.431 645.431 194 662 194H752C768.569 194 782 207.431 782 224V800C782 816.569 768.569 830 752 830H662C645.431 830 632 816.569 632 800V224Z" fill="#D1D9E4"/>
  <path d="M410.017 194H505.162C517.644 194 528.741 201.943 532.702 213.779L716.143 761.779C722.641 781.187 708.192 801 687.725 801H591.859C579.011 801 567.673 792.82 564.058 780.491L381.685 232.491C375.857 212.99 390.458 194 410.017 194Z" fill="#D1B07A"/>
  <path d="M473.113 154H525.789C541.006 154 553.757 165.488 555.34 180.622L618.055 780.622C620.022 799.448 605.268 816 586.34 816H533.664C518.447 816 505.696 804.512 504.113 789.378L441.398 189.378C439.43 170.552 454.184 154 473.113 154Z" fill="#E2C393"/>
  <path d="M742 171L763.871 231.129L824 253L763.871 274.871L742 335L720.129 274.871L660 253L720.129 231.129L742 171Z" fill="#F8ECD7"/>
</svg>
